<svg xmlns="http://www.w3.org/2000/svg" xmlns:xlink="http://www.w3.org/1999/xlink" version="1.1" width="256" height="256" viewBox="0 0 256 256" xml:space="preserve">

<defs>
</defs>
<g style="stroke: none; stroke-width: 0; stroke-dasharray: none; stroke-linecap: butt; stroke-linejoin: miter; stroke-miterlimit: 10; fill: none; fill-rule: nonzero; opacity: 1;" transform="translate(1.4065934065934016 1.4065934065934016) scale(2.81 2.81)" >
	<path d="M 79.085 0 h -0.183 H 10.915 C 4.887 0 0 4.887 0 10.915 v 67.987 v 0.183 C 0 85.113 4.887 90 10.915 90 h 68.17 C 85.113 90 90 85.113 90 79.085 v -68.17 C 90 4.887 85.113 0 79.085 0 z M 25 71.976 c -3.853 0 -6.976 -3.123 -6.976 -6.976 c 0 -3.853 3.123 -6.976 6.976 -6.976 s 6.976 3.123 6.976 6.976 C 31.976 68.853 28.853 71.976 25 71.976 z M 25 51.976 c -3.853 0 -6.976 -3.123 -6.976 -6.976 c 0 -3.853 3.123 -6.976 6.976 -6.976 s 6.976 3.123 6.976 6.976 C 31.976 48.853 28.853 51.976 25 51.976 z M 25 31.976 c -3.853 0 -6.976 -3.123 -6.976 -6.976 c 0 -3.853 3.123 -6.976 6.976 -6.976 s 6.976 3.123 6.976 6.976 C 31.976 28.853 28.853 31.976 25 31.976 z M 65 71.976 c -3.853 0 -6.976 -3.123 -6.976 -6.976 c 0 -3.853 3.123 -6.976 6.976 -6.976 s 6.976 3.123 6.976 6.976 C 71.976 68.853 68.853 71.976 65 71.976 z M 65 51.976 c -3.853 0 -6.976 -3.123 -6.976 -6.976 c 0 -3.853 3.123 -6.976 6.976 -6.976 s 6.976 3.123 6.976 6.976 C 71.976 48.853 68.853 51.976 65 51.976 z M 65 31.976 c -3.853 0 -6.976 -3.123 -6.976 -6.976 c 0 -3.853 3.123 -6.976 6.976 -6.976 s 6.976 3.123 6.976 6.976 C 71.976 28.853 68.853 31.976 65 31.976 z" style="stroke: none; stroke-width: 1; stroke-dasharray: none; stroke-linecap: butt; stroke-linejoin: miter; stroke-miterlimit: 10; fill: rgb(0,0,0); fill-rule: nonzero; opacity: 1;" transform=" matrix(1 0 0 1 0 0) " stroke-linecap="round" />
</g>
</svg>